<?xml version="1.0" encoding="UTF-8"?>
<svg width="28px" height="28px" viewBox="0 0 28 28" version="1.1" xmlns="http://www.w3.org/2000/svg" xmlns:xlink="http://www.w3.org/1999/xlink">
    <!-- Generator: Sketch 47.1 (45422) - http://www.bohemiancoding.com/sketch -->
    <title>attachment-download</title>
    <desc>Created with Sketch.</desc>
    <defs>
        <filter x="-2.2%" y="-1.9%" width="104.4%" height="105.4%" filterUnits="objectBoundingBox" id="filter-1">
            <feOffset dx="0" dy="4" in="SourceAlpha" result="shadowOffsetOuter1"></feOffset>
            <feGaussianBlur stdDeviation="4" in="shadowOffsetOuter1" result="shadowBlurOuter1"></feGaussianBlur>
            <feColorMatrix values="0 0 0 0 0   0 0 0 0 0   0 0 0 0 0  0 0 0 0.104308197 0" type="matrix" in="shadowBlurOuter1" result="shadowMatrixOuter1"></feColorMatrix>
            <feMerge>
                <feMergeNode in="shadowMatrixOuter1"></feMergeNode>
                <feMergeNode in="SourceGraphic"></feMergeNode>
            </feMerge>
        </filter>
    </defs>
    <g id="Customers" stroke="none" stroke-width="1" fill="none" fill-rule="evenodd">
        <g id="Notes-Details" transform="translate(-636.000000, -451.000000)" fill-rule="nonzero" fill="#437EE1">
            <g id="Group-7-Copy-3" filter="url(#filter-1)" transform="translate(485.000000, 372.000000)">
                <g id="Stacked-Group-3" transform="translate(48.000000, 82.000000)">
                    <g id="attachment-download" transform="translate(111.000000, 1.000000)">
                        <path d="M6,9 C6.225,9 6.375,8.925 6.525,8.775 L10.8,4.5 L9.75,3.45 L6.75,6.45 L6.75,0 L5.25,0 L5.25,6.45 L2.25,3.45 L1.2,4.5 L5.475,8.775 C5.625,8.925 5.775,9 6,9 Z" id="Shape"></path>
                        <path d="M10.5,10.5 L1.5,10.5 L1.5,8.25 L0,8.25 L0,11.25 C0,11.7 0.3,12 0.75,12 L11.25,12 C11.7,12 12,11.7 12,11.25 L12,8.25 L10.5,8.25 L10.5,10.5 Z" id="Shape"></path>
                    </g>
                </g>
            </g>
        </g>
    </g>
</svg>