<?xml version="1.0" encoding="UTF-8"?>
<svg width="16px" height="16px" viewBox="0 0 16 16" version="1.1" xmlns="http://www.w3.org/2000/svg" xmlns:xlink="http://www.w3.org/1999/xlink">
    <!-- Generator: Sketch 47.1 (45422) - http://www.bohemiancoding.com/sketch -->
    <title>car-parking</title>
    <desc>Created with Sketch.</desc>
    <defs></defs>
    <g id="Feedback" stroke="none" stroke-width="1" fill="none" fill-rule="evenodd">
        <g id="Policy-Detail" transform="translate(-236.000000, -942.000000)" fill-rule="nonzero" fill="#565656">
            <g id="Group-2" transform="translate(192.000000, 24.000000)">
                <g id="Group-8" transform="translate(44.000000, 337.000000)">
                    <g id="Stacked-Group-2">
                        <g id="Stacked-Group" transform="translate(0.000000, 579.000000)">
                            <g id="Group-18">
                                <g id="car-parking" transform="translate(0.000000, 2.000000)">
                                    <rect id="Rectangle-path" x="0" y="0" width="16" height="2"></rect>
                                    <path d="M15.707,10.293 L14.921,9.507 L13.98,4.8 C13.8849463,4.33433375 13.4752686,3.999903 13,4 L3,4 C2.52473138,3.999903 2.11505372,4.33433375 2.02,4.8 L1.079,9.5 L0.293,10.286 C0.103726134,10.4752045 -0.0018101026,10.7323815 -1.66526677e-16,11 L-1.66526677e-16,15 C-9.88927907e-17,15.5522847 0.44771525,16 1,16 L4,16 C4.55228475,16 5,15.5522847 5,15 L5,14 L11,14 L11,15 C11,15.5522847 11.4477153,16 12,16 L15,16 C15.5522847,16 16,15.5522847 16,15 L16,11 C15.9999434,10.7348052 15.8945494,10.4804927 15.707,10.293 Z M3,13 L2,13 L2,12 L3,12 L3,13 Z M3.22,9 L3.82,6 L12.18,6 L12.78,9 L3.22,9 Z M14,13 L13,13 L13,12 L14,12 L14,13 Z" id="Shape"></path>
                                </g>
                            </g>
                        </g>
                    </g>
                </g>
            </g>
        </g>
    </g>
</svg>