<?xml version="1.0" encoding="UTF-8"?>
<svg width="32px" height="32px" viewBox="0 0 32 32" version="1.1" xmlns="http://www.w3.org/2000/svg" xmlns:xlink="http://www.w3.org/1999/xlink">
    <!-- Generator: Sketch 47.1 (45422) - http://www.bohemiancoding.com/sketch -->
    <title>close-button-circle</title>
    <desc>Created with Sketch.</desc>
    <defs>
        <filter x="-2.2%" y="-1.9%" width="104.4%" height="105.4%" filterUnits="objectBoundingBox" id="filter-1">
            <feOffset dx="0" dy="4" in="SourceAlpha" result="shadowOffsetOuter1"></feOffset>
            <feGaussianBlur stdDeviation="4" in="shadowOffsetOuter1" result="shadowBlurOuter1"></feGaussianBlur>
            <feColorMatrix values="0 0 0 0 0   0 0 0 0 0   0 0 0 0 0  0 0 0 0.104308197 0" type="matrix" in="shadowBlurOuter1" result="shadowMatrixOuter1"></feColorMatrix>
            <feMerge>
                <feMergeNode in="shadowMatrixOuter1"></feMergeNode>
                <feMergeNode in="SourceGraphic"></feMergeNode>
            </feMerge>
        </filter>
    </defs>
    <g id="Customers" stroke="none" stroke-width="1" fill="none" fill-rule="evenodd">
        <g id="Notes-Details" transform="translate(-1071.000000, -392.000000)" fill-rule="nonzero" fill="#767676">
            <g id="Group-7-Copy-3" filter="url(#filter-1)" transform="translate(485.000000, 372.000000)">
                <g id="close-button-circle" transform="translate(594.000000, 24.000000)">
                    <path d="M8,0 C3.6,0 0,3.6 0,8 C0,12.4 3.6,16 8,16 C12.4,16 16,12.4 16,8 C16,3.6 12.4,0 8,0 Z M11.5,10.1 L10.1,11.5 L8,9.4 L5.9,11.5 L4.5,10.1 L6.6,8 L4.5,5.9 L5.9,4.5 L8,6.6 L10.1,4.5 L11.5,5.9 L9.4,8 L11.5,10.1 Z" id="Shape"></path>
                </g>
            </g>
        </g>
    </g>
</svg>