<?xml version="1.0" encoding="UTF-8"?>
<svg width="16px" height="16px" viewBox="0 0 16 16" version="1.1" xmlns="http://www.w3.org/2000/svg" xmlns:xlink="http://www.w3.org/1999/xlink">
    <!-- Generator: Sketch 47.1 (45422) - http://www.bohemiancoding.com/sketch -->
    <title>car-front</title>
    <desc>Created with Sketch.</desc>
    <defs></defs>
    <g id="Feedback" stroke="none" stroke-width="1" fill="none" fill-rule="evenodd">
        <g id="Policy-Detail" transform="translate(-236.000000, -583.000000)" fill-rule="nonzero" fill="#565656">
            <g id="Group-2" transform="translate(192.000000, 24.000000)">
                <g id="Group-8" transform="translate(44.000000, 337.000000)">
                    <g id="Stacked-Group-2">
                        <g id="Stacked-Group-4" transform="translate(0.000000, 220.000000)">
                            <g id="Group-16">
                                <g id="car-front" transform="translate(0.000000, 2.000000)">
                                    <path d="M15.7,8.3 L14.9,7.5 L13.9,0.8 C13.9,0.4 13.5,0 13,0 L3,0 C2.5,0 2.1,0.4 2,0.9 L1,7.6 L0.3,8.3 C0.1,8.5 0,8.7 0,9 L0,13 C0,13.6 0.4,14 1,14 L1,15 C1,15.6 1.4,16 2,16 L4,16 C4.6,16 5,15.6 5,15 L5,14 L11,14 L11,15 C11,15.6 11.4,16 12,16 L14,16 C14.6,16 15,15.6 15,15 L15,14 C15.6,14 16,13.6 16,13 L16,9 C16,8.7 15.9,8.5 15.7,8.3 Z M3,12 C2.4,12 2,11.6 2,11 C2,10.4 2.4,10 3,10 C3.6,10 4,10.4 4,11 C4,11.6 3.6,12 3,12 Z M3.2,7 L3.9,2 L12.2,2 L12.9,7 L3.2,7 Z M13,12 C12.4,12 12,11.6 12,11 C12,10.4 12.4,10 13,10 C13.6,10 14,10.4 14,11 C14,11.6 13.6,12 13,12 Z" id="Shape"></path>
                                </g>
                            </g>
                        </g>
                    </g>
                </g>
            </g>
        </g>
    </g>
</svg>