<?xml version="1.0" encoding="UTF-8"?>
<svg width="15px" height="14px" viewBox="0 0 15 14" version="1.1" xmlns="http://www.w3.org/2000/svg" xmlns:xlink="http://www.w3.org/1999/xlink">
    <!-- Generator: Sketch 47.1 (45422) - http://www.bohemiancoding.com/sketch -->
    <title>check-square-11</title>
    <desc>Created with Sketch.</desc>
    <defs></defs>
    <g id="Feedback" stroke="none" stroke-width="1" fill="none" fill-rule="evenodd">
        <g id="Policy-Detail" transform="translate(-262.000000, -723.000000)">
            <g id="Group-2" transform="translate(192.000000, 24.000000)">
                <g id="Group-8" transform="translate(44.000000, 337.000000)">
                    <g id="Stacked-Group-2">
                        <g id="Stacked-Group-5" transform="translate(0.000000, 359.000000)">
                            <g id="Group-14">
                                <g id="check-square-11" transform="translate(26.000000, 2.000000)">
                                    <rect id="Rectangle-2" x="0" y="0" width="15" height="16"></rect>
                                    <g id="Group-17" transform="translate(0.000000, 1.000000)" fill-rule="nonzero" fill="#565656">
                                        <path d="M13.3,0.3 L7,6.6 L5.7,5.3 C5.3,4.9 4.7,4.9 4.3,5.3 C3.9,5.7 3.9,6.3 4.3,6.7 L6.3,8.7 C6.5,8.9 6.7,9 7,9 C7.3,9 7.5,8.9 7.7,8.7 L14.7,1.7 C15.1,1.3 15.1,0.7 14.7,0.3 C14.3,-0.1 13.7,-0.1 13.3,0.3 Z" id="Shape"></path>
                                        <path d="M1,14 L13,14 C13.6,14 14,13.6 14,13 L14,8 C14,7.4 13.6,7 13,7 C12.4,7 12,7.4 12,8 L12,12 L2,12 L2,2 L7,2 C7.6,2 8,1.6 8,1 C8,0.4 7.6,0 7,0 L1,0 C0.4,0 0,0.4 0,1 L0,13 C0,13.6 0.4,14 1,14 Z" id="Shape"></path>
                                    </g>
                                </g>
                            </g>
                        </g>
                    </g>
                </g>
            </g>
        </g>
    </g>
</svg>