<?xml version="1.0" encoding="UTF-8"?>
<svg width="48px" height="48px" viewBox="0 0 48 48" version="1.1" xmlns="http://www.w3.org/2000/svg" xmlns:xlink="http://www.w3.org/1999/xlink">
    <!-- Generator: Sketch 47.1 (45422) - http://www.bohemiancoding.com/sketch -->
    <title>gklogo</title>
    <desc>Created with Sketch.</desc>
    <defs>
        <path d="M0.082513179,0.579275724 C0.13259791,0.705391903 0.192626988,0.857955858 0.282888007,1.04100149 L4.11173326,1.70692946 L4.11173326,0.579275724 L0.082513179,0.579275724 Z" id="path-1"></path>
        <path d="M2.80702234,0.736808951 L0.268914864,0.736808951 L0.182007977,1.19696635 L2.49454627,1.17554421 C2.63546127,0.983486915 2.73961996,0.83724183 2.80702234,0.736808951 Z" id="path-3"></path>
    </defs>
    <g id="Symbols" stroke="none" stroke-width="1" fill="none" fill-rule="evenodd">
        <g id="Menu-/-Expanded" transform="translate(-72.000000, -26.000000)">
            <g id="gklogo" transform="translate(71.000000, 23.000000)">
                <rect id="Rectangle" x="0" y="0" width="50" height="50"></rect>
                <g id="gk_insurance_logo" transform="translate(5.000000, 5.000000)">
                    <g id="Group">
                        <path d="M39.4315631,20.1109986 C39.4315631,30.9378467 30.6534056,39.7216792 19.8265575,39.7216792 C8.99289924,39.7216792 0.215876809,30.9378467 0.215876809,20.1109986 C0.215876809,9.28301537 8.99289924,0.503722924 19.8265575,0.503722924 C30.6534056,0.503722924 39.4315631,9.28301537 39.4315631,20.1109986 Z" id="Fill-1" fill="#D51F32"></path>
                        <g id="Group-2" transform="translate(6.274510, 6.274510)" fill="#FFFFFF">
                            <path d="M6.81827055,5.30266004 C6.81827055,5.30266004 8.89766403,4.51330243 13.4251938,4.51330243 C18.1827649,4.51330243 19.8945433,5.30266004 19.8945433,5.30266004 L20.9240911,2.46322793 L17.0032391,3.27739393 L13.4251938,0.400749251 L9.42089537,3.26611739 L5.92178583,2.46322793 L6.81827055,5.30266004 Z" id="Fill-3"></path>
                            <path d="M12.6685381,16.2852181 C12.3843694,16.6426843 12.0753923,16.9539167 11.7404791,17.2144047 C11.4078213,17.4760204 11.0571209,17.6902746 10.6917611,17.8628056 C10.3309119,18.034209 9.95991385,18.1616339 9.57651158,18.2439526 C9.19423697,18.324016 8.81647297,18.3646116 8.43870896,18.3646116 C7.6944575,18.3646116 6.99643984,18.2259101 6.34240067,17.9530179 C5.69061681,17.6789981 5.12115167,17.3001064 4.63513291,16.8208536 C4.15136946,16.3438561 3.76458423,15.7766462 3.48041549,15.1248624 C3.19624675,14.4753338 3.05303472,13.7728055 3.05303472,13.0206605 C3.05303472,12.2820473 3.19399144,11.5919232 3.47590487,10.9457776 C3.75669065,10.2951214 4.14122058,9.73242221 4.62949464,9.25204172 C5.11664106,8.77278888 5.69061681,8.39502488 6.34240067,8.11536675 C6.99643984,7.83909159 7.6944575,7.69700722 8.43870896,7.69700722 C9.30474703,7.69700722 10.0850834,7.88081478 10.79325,8.23489805 C11.5002889,8.5968749 12.102456,9.07612774 12.594113,9.67716718 L11.2792687,11.0506494 C10.90376,10.5296734 10.4820175,10.15642 10.0140412,9.925251 C9.54493728,9.69972025 9.02396125,9.58582723 8.44434723,9.58582723 C7.97298797,9.58582723 7.52305413,9.67716718 7.10469459,9.85984708 C6.68746271,10.0380164 6.3221029,10.2838449 6.00635986,10.5984603 C5.69512742,10.9108204 5.45155422,11.2727972 5.26887431,11.6889014 C5.09296033,12.103878 5.00049272,12.5459183 5.00049272,13.0206605 C5.00049272,13.4965304 5.09296033,13.9430813 5.26887431,14.3603131 C5.45155422,14.7786727 5.69512742,15.1451601 6.00635986,15.4620308 C6.3221029,15.7766462 6.6829521,16.028113 7.10469459,16.2051547 C7.52305413,16.3821963 7.97073266,16.4791745 8.44434723,16.4791745 C8.89766403,16.4791745 9.32053419,16.3912175 9.72197892,16.2198142 C10.1268066,16.0439002 10.4842728,15.82288 10.7977606,15.5375836 L10.7977606,14.549759 L8.74204782,14.549759 L8.74204782,12.8503848 L12.6685381,12.8503848 L12.6685381,16.2852181 Z" id="Fill-5"></path>
                            <path d="M8.43814514,8.03259697 C7.74238278,8.03259697 7.083833,8.16678776 6.47715529,8.42502047 C5.862584,8.68550848 5.32131021,9.04410237 4.8657381,9.49516387 C4.40903834,9.93833178 4.04367853,10.4728397 3.78319052,11.0738791 C3.52383016,11.6783015 3.38851171,12.3334683 3.38851171,13.0213371 C3.38851171,13.7227377 3.52383016,14.3846705 3.78770113,14.9890929 C4.05608272,15.6025365 4.41693192,16.1370444 4.87137637,16.5835952 C5.32469317,17.0312738 5.862584,17.3876124 6.47489998,17.6413345 C7.38942716,18.0281197 8.4415281,18.1431404 9.50490557,17.9142267 C9.86124415,17.8386739 10.2096892,17.7191426 10.5502406,17.5578881 C10.8885367,17.4011442 11.2211946,17.1936559 11.5346823,16.9489551 C11.8199787,16.7268073 12.0894879,16.4651916 12.3319335,16.1652357 L12.3319335,13.1871022 L9.0752695,13.1871022 L9.0752695,14.2121394 L11.1366205,14.2121394 L11.1366205,15.6848552 L11.0215998,15.7852164 C10.6810484,16.0941935 10.2886249,16.343405 9.85673354,16.5238296 C9.41243797,16.717786 8.9388234,16.809126 8.44378341,16.809126 C7.92280738,16.809126 7.42663974,16.7121478 6.97219528,16.5136807 C6.51436786,16.3197243 6.11179548,16.0411938 5.76898874,15.6961318 C5.42843732,15.3510697 5.15667277,14.946242 4.96384398,14.4929252 C4.76650457,14.0407361 4.66388808,13.5423131 4.66388808,13.0213371 C4.66388808,12.5014887 4.76650457,12.0098317 4.96384398,11.5542596 C5.15667277,11.1020704 5.43069262,10.7006257 5.77124405,10.3589466 C6.11405079,10.0172675 6.51662317,9.74437534 6.97219528,9.54816359 C7.4300227,9.35420715 7.927318,9.25159066 8.44378341,9.25159066 C9.07188654,9.25159066 9.64924525,9.38014318 10.1600724,9.62484404 C10.5761766,9.82669406 10.9595789,10.1334159 11.3046409,10.5404989 L12.1391047,9.66769489 C11.7173622,9.20648451 11.209918,8.82759285 10.6438358,8.5389135 C9.98528606,8.20174503 9.24441756,8.03259697 8.43814514,8.03259697 M8.43814514,18.6990737 C7.65329814,18.6990737 6.90566371,18.5536063 6.21441197,18.2626717 C5.52428788,17.9762476 4.91422721,17.5669093 4.39888946,17.0583375 C3.88693466,16.5531486 3.47421339,15.9475985 3.17312984,15.2608574 C2.86979099,14.5707333 2.7209407,13.8140777 2.7209407,13.0213371 C2.7209407,12.2398731 2.86979099,11.4956216 3.16523627,10.8111358 C3.46406451,10.1243946 3.87791343,9.51884459 4.39663415,9.01478337 C4.91197191,8.50846685 5.52428788,8.09912854 6.20990136,7.80819388 C6.9034084,7.5127486 7.65329814,7.36502596 8.43814514,7.36502596 C9.35041701,7.36502596 10.1927744,7.55334413 10.9449194,7.94012936 C11.6925538,8.31563806 12.3308058,8.82984816 12.8551648,9.46471721 L13.0423553,9.69588623 L11.2414923,11.5734297 L11.0069403,11.2464101 C10.663006,10.7750509 10.2807313,10.4311165 9.86688242,10.2303941 C9.44513992,10.0262888 8.9703977,9.92141698 8.44378341,9.92141698 C8.01865795,9.92141698 7.61383026,10.0048634 7.23944922,10.1649902 C6.86281287,10.3262447 6.52902736,10.5517754 6.24711393,10.8348165 C5.96520049,11.1144746 5.73741444,11.4460048 5.57390465,11.8215135 C5.41828843,12.1913839 5.33596971,12.5962116 5.33596971,13.0213371 C5.33596971,13.4509732 5.41828843,13.8558009 5.57390465,14.2301819 C5.73741444,14.6034353 5.96520049,14.9406038 6.24936924,15.2225172 C6.52902736,15.5100689 6.86281287,15.7389826 7.23719391,15.8957265 C7.6104473,16.0581086 8.01414733,16.1404273 8.44378341,16.1404273 C8.84748344,16.1404273 9.23539633,16.0626192 9.59060726,15.9092583 C9.90860561,15.7716846 10.2017956,15.5980259 10.4622836,15.3837717 L10.4622836,14.8853487 L8.40431553,14.8853487 L8.40431553,12.5161482 L13.0073981,12.5161482 L13.0073981,16.3997877 L12.9352282,16.4911276 C12.6352723,16.8666363 12.3014868,17.2038048 11.9507865,17.4778247 C11.5978309,17.7563551 11.2211946,17.9841412 10.8389199,18.1656934 C10.4487517,18.3517563 10.047307,18.4836918 9.64473463,18.5693935 C9.24441756,18.6573505 8.83733456,18.6990737 8.43814514,18.6990737" id="Fill-7"></path>
                            <polygon id="Fill-9" points="23.3046809 18.1760679 20.7685877 18.1760679 16.7507574 13.6214744 16.7507574 18.1760679 14.8044271 18.1760679 14.8044271 7.89412109 16.7507574 7.89412109 16.7507574 12.4814165 20.8565447 7.89412109 23.1682348 7.89412109 18.6339392 12.9392439"></polygon>
                            <path d="M15.1404679,17.8347271 L16.4147166,17.8347271 L16.4147166,8.22711724 L15.1404679,8.22711724 L15.1404679,17.8347271 Z M20.9208209,17.8347271 L22.5536635,17.8347271 L18.1828777,12.9395822 L22.4127068,8.22711724 L21.0076503,8.22711724 L16.6943747,13.0489646 L20.9208209,17.8347271 Z M24.0545707,18.509064 L20.6174821,18.509064 L17.0867982,14.5081485 L17.0867982,18.509064 L14.4717692,18.509064 L14.4717692,7.55278031 L17.0867982,7.55278031 L17.0867982,11.5976743 L20.7043114,7.55278031 L23.9181246,7.55278031 L19.0827453,12.9418375 L24.0545707,18.509064 Z" id="Fill-11"></path>
                            <polygon id="Fill-13" points="0.00171647785 25.3426456 0.729053137 25.3426456 0.729053137 21.3699215 0.00171647785 21.3699215"></polygon>
                            <path d="M1.60501456,25.3427584 L1.60501456,21.3700343 L2.45639313,21.3700343 L3.13411303,22.8269629 C3.3224312,23.2430672 3.50962172,23.7369795 3.66072732,24.184658 L3.66974855,24.184658 C3.62577005,23.6648096 3.60885525,23.1246635 3.60885525,22.527007 L3.60885525,21.3700343 L4.28319218,21.3700343 L4.28319218,25.3427584 L3.51300468,25.3427584 L2.8251359,23.8091493 C2.63117946,23.3851515 2.41692525,22.8743244 2.26018138,22.4074757 L2.24326657,22.4074757 C2.2669473,22.937473 2.27596853,23.4979169 2.27596853,24.1463178 L2.27596853,25.3427584 L1.60501456,25.3427584 Z" id="Fill-14"></path>
                            <path d="M5.18125562,24.4144739 C5.3718291,24.5407711 5.68193388,24.66143 5.990911,24.66143 C6.33033477,24.66143 6.50737641,24.4934096 6.50737641,24.2317939 C6.50737641,23.9870931 6.35063254,23.8427534 5.96497496,23.6803713 C5.42708413,23.4458193 5.07187321,23.0793318 5.07187321,22.4997178 C5.07187321,21.8253809 5.53646654,21.3111708 6.29763282,21.3111708 C6.66637559,21.3111708 6.93024656,21.3980001 7.12307535,21.5130208 L6.95956556,22.2302086 C6.83101303,22.1535281 6.59758871,22.043018 6.28410097,22.043018 C5.97061323,22.043018 5.81725232,22.2268256 5.81725232,22.4252927 C5.81725232,22.6756318 5.990911,22.7917801 6.4149088,22.9834813 C6.98888456,23.2428416 7.25050022,23.6070738 7.25050022,24.16639 C7.25050022,24.8317057 6.83890661,25.4022985 5.94806016,25.4022985 C5.58157269,25.4022985 5.21282992,25.2748737 5.03127767,25.1519594 L5.18125562,24.4144739 Z" id="Fill-15"></path>
                            <path d="M8.71847986,21.3695832 L8.71847986,23.6496991 C8.71847986,24.3409508 8.93498937,24.6882682 9.30824276,24.6882682 C9.68826207,24.6882682 9.90251628,24.3589933 9.90251628,23.6496991 L9.90251628,21.3695832 L10.6309806,21.3695832 L10.6309806,23.597827 C10.6309806,24.8235866 10.1269194,25.4032006 9.28343438,25.4032006 C8.46701307,25.4032006 7.99001554,24.848395 7.99001554,23.5854228 L7.99001554,21.3695832 L8.71847986,21.3695832 Z" id="Fill-16"></path>
                            <path d="M12.2324744,23.1315422 L12.5200261,23.1315422 C12.8831306,23.1315422 13.0996402,22.9071391 13.0996402,22.5609494 C13.0996402,22.2057385 12.8966625,22.011782 12.562877,22.011782 C12.3847077,22.011782 12.2820912,22.0253139 12.2324744,22.0433563 L12.2324744,23.1315422 Z M11.5051378,21.4242744 C11.7408174,21.3780406 12.0892624,21.3430834 12.4816859,21.3430834 C12.9609387,21.3430834 13.2958519,21.4287851 13.5258933,21.6509328 C13.7243603,21.8437616 13.8303598,22.1256751 13.8303598,22.4944178 C13.8303598,22.9894578 13.5394251,23.3367752 13.2608946,23.4608171 L13.2608946,23.4788595 C13.4852977,23.5927526 13.6093396,23.8476023 13.692786,24.2163451 C13.7920195,24.6685342 13.8856148,25.1895103 13.9498911,25.3428712 L13.201129,25.3428712 C13.1548952,25.2222122 13.0725765,24.9075968 12.9801089,24.4148121 C12.8898966,23.9163892 12.7478122,23.7855814 12.4467286,23.7821984 L12.2324744,23.7821984 L12.2324744,25.3428712 L11.5051378,25.3428712 L11.5051378,21.4242744 Z" id="Fill-17"></path>
                            <path d="M16.2144453,23.6502629 L16.0080847,22.8090332 C15.9528296,22.5699706 15.8941916,22.2779083 15.8468302,22.0433563 L15.8389366,22.0433563 C15.7904475,22.2779083 15.7408307,22.5744813 15.6867034,22.8090332 L15.4972575,23.6502629 L16.2144453,23.6502629 Z M15.3901304,24.3223445 L15.1612167,25.3428712 L14.4056887,25.3428712 L15.3901304,21.3701471 L16.3531467,21.3701471 L17.3590138,25.3428712 L16.5696562,25.3428712 L16.3204448,24.3223445 L15.3901304,24.3223445 Z" id="Fill-18"></path>
                            <path d="M18.0275997,25.3427584 L18.0275997,21.3700343 L18.8812336,21.3700343 L19.5555706,22.8269629 C19.7450164,23.2430672 19.9333346,23.7369795 20.0833125,24.184658 L20.0934614,24.184658 C20.0483552,23.6648096 20.0336957,23.1246635 20.0336957,22.527007 L20.0336957,21.3700343 L20.7091603,21.3700343 L20.7091603,25.3427584 L19.9378452,25.3427584 L19.2465934,23.8091493 C19.0548923,23.3851515 18.8428934,22.8743244 18.6850219,22.4074757 L18.6624688,22.4074757 C18.6895325,22.937473 18.6996814,23.4979169 18.6996814,24.1463178 L18.6996814,25.3427584 L18.0275997,25.3427584 Z" id="Fill-19"></path>
                            <path d="M23.9527435,25.2359696 C23.8219357,25.3115224 23.5163415,25.4028624 23.1284287,25.4028624 C22.0086685,25.4028624 21.4313098,24.5458455 21.4313098,23.4136812 C21.4313098,22.0638796 22.2184121,21.3117346 23.1994708,21.3117346 C23.5806178,21.3117346 23.8681695,21.3985639 23.996722,21.4865209 L23.8444888,22.1946875 C23.6967661,22.1168794 23.4915332,22.0469648 23.2276622,22.0469648 C22.6525588,22.0469648 22.2014973,22.4777286 22.2014973,23.3618091 C22.2014973,24.156805 22.5848995,24.6552279 23.2344281,24.6552279 C23.4588312,24.6552279 23.6967661,24.6044835 23.8489994,24.5266754 L23.9527435,25.2359696 Z" id="Fill-20"></path>
                            <polygon id="Fill-21" points="26.6050979 23.6645841 25.4131679 23.6645841 25.4131679 24.6050473 26.7449269 24.6050473 26.7449269 25.3425329 24.6835759 25.3425329 24.6835759 21.3698088 26.679523 21.3698088 26.679523 22.1072943 25.4131679 22.1072943 25.4131679 22.9327368 26.6050979 22.9327368"></polygon>
                        </g>
                        <g id="Group-29" transform="translate(1.630887, 27.063690)">
                            <g id="Group-25" transform="translate(-0.000000, 0.000000)">
                                <mask id="mask-2" fill="white">
                                    <use xlink:href="#path-1"></use>
                                </mask>
                                <g id="Clip-24"></g>
                                <polygon id="Fill-23" fill="#FFFFFF" mask="url(#mask-2)" points="4.11173326 0.579275724 -7.55046167 0.579275724 -7.55046167 1.03146487 3.67082065 1.03710314"></polygon>
                            </g>
                            <g id="Group-28" transform="translate(31.574305, 3.382961)">
                                <mask id="mask-4" fill="white">
                                    <use xlink:href="#path-3"></use>
                                </mask>
                                <g id="Clip-27"></g>
                                <polygon id="Fill-26" fill="#FFFFFF" mask="url(#mask-4)" points="12.3731501 0.736808951 0.710955128 0.736808951 0.268914864 1.17095564 11.9852372 1.17095564"></polygon>
                            </g>
                        </g>
                    </g>
                </g>
            </g>
        </g>
    </g>
</svg>