<?xml version="1.0" encoding="UTF-8"?>
<svg width="16px" height="16px" viewBox="0 0 16 16" version="1.1" xmlns="http://www.w3.org/2000/svg" xmlns:xlink="http://www.w3.org/1999/xlink">
    <!-- Generator: Sketch 47.1 (45422) - http://www.bohemiancoding.com/sketch -->
    <title>print</title>
    <desc>Created with Sketch.</desc>
    <defs></defs>
    <g id="Feedback" stroke="none" stroke-width="1" fill="none" fill-rule="evenodd">
        <g id="Policy-Detail" transform="translate(-1340.000000, -357.000000)" fill-rule="nonzero" fill="#A2A2A2">
            <g id="Group-2" transform="translate(192.000000, 24.000000)">
                <g id="Print" transform="translate(1140.000000, 325.000000)">
                    <g id="print" transform="translate(8.000000, 8.000000)">
                        <rect id="Rectangle-path" x="3" y="0" width="10" height="3"></rect>
                        <path d="M15,5 L1,5 C0.4,5 0,5.4 0,6 L0,12 C0,12.6 0.4,13 1,13 L3,13 L3,15 C3,15.6 3.4,16 4,16 L12,16 C12.6,16 13,15.6 13,15 L13,13 L15,13 C15.6,13 16,12.6 16,12 L16,6 C16,5.4 15.6,5 15,5 Z M11,14 L5,14 L5,9 L11,9 L11,14 Z" id="Shape"></path>
                    </g>
                </g>
            </g>
        </g>
    </g>
</svg>