<?xml version="1.0" encoding="UTF-8"?>
<svg width="26px" height="26px" viewBox="0 0 26 26" version="1.1" xmlns="http://www.w3.org/2000/svg" xmlns:xlink="http://www.w3.org/1999/xlink">
    <!-- Generator: Sketch 47.1 (45422) - http://www.bohemiancoding.com/sketch -->
    <title>menu-square</title>
    <desc>Created with Sketch.</desc>
    <defs></defs>
    <g id="Customers" stroke="none" stroke-width="1" fill="none" fill-rule="evenodd">
        <g id="Quotation-Detail" transform="translate(-1323.000000, -256.000000)">
            <g id="Group-18" transform="translate(192.000000, 237.000000)">
                <g id="Group">
                    <g id="menu-square" transform="translate(1132.000000, 20.000000)">
                        <path d="M23,0 L1,0 C0.4,0 0,0.4 0,1 L0,23 C0,23.6 0.4,24 1,24 L23,24 C23.6,24 24,23.6 24,23 L24,1 C24,0.4 23.6,0 23,0 Z" id="Shape" stroke="#CFCFCF" fill="#F4F4F4" fill-rule="nonzero"></path>
                        <polygon id="Path" fill="#A2A2A2" points="19 18 5 18 5 16 19 16"></polygon>
                        <polygon id="Path" fill="#A2A2A2" points="19 13 5 13 5 11 19 11"></polygon>
                        <polygon id="Path" fill="#A2A2A2" points="19 8 5 8 5 6 19 6"></polygon>
                    </g>
                </g>
            </g>
        </g>
    </g>
</svg>