<?xml version="1.0" encoding="UTF-8"?>
<svg width="21px" height="16px" viewBox="0 0 21 16" version="1.1" xmlns="http://www.w3.org/2000/svg" xmlns:xlink="http://www.w3.org/1999/xlink">
    <!-- Generator: Sketch 47.1 (45422) - http://www.bohemiancoding.com/sketch -->
    <title>trinidad-tobago</title>
    <desc>Created with Sketch.</desc>
    <defs></defs>
    <g id="Feedback" stroke="none" stroke-width="1" fill="none" fill-rule="evenodd">
        <g id="Quotation-Detail" transform="translate(-251.000000, -24.000000)" fill-rule="nonzero">
            <g id="Group-15" transform="translate(224.000000, 24.000000)">
                <g id="trinidad-tobago" transform="translate(27.000000, 0.000000)">
                    <path d="M20.2105263,14.6669474 C20.2105263,15.1322105 19.8336842,15.5090526 19.3684211,15.5090526 L0.842105263,15.5090526 C0.376842105,15.5090526 0,15.1322105 0,14.6669474 L0,1.19326316 C0,0.728 0.376842105,0.351157895 0.842105263,0.351157895 L19.3684211,0.351157895 C19.8336842,0.351157895 20.2105263,0.728 20.2105263,1.19326316 L20.2105263,14.6669474 Z" id="Shape" fill="#E6E6E6"></path>
                    <path d="M19.3684211,0.421052632 L5.05263158,0.421052632 L20.2105263,10.5263158 L20.2105263,1.26315789 C20.2105263,0.798315789 19.8336842,0.421052632 19.3684211,0.421052632 Z" id="Shape" fill="#D90E2B"></path>
                    <path d="M0.842105263,15.5789474 L15.1578947,15.5789474 L0,5.47368421 L0,14.7368421 C0,15.2016842 0.376842105,15.5789474 0.842105263,15.5789474 Z" id="Shape" fill="#D90E2B"></path>
                    <path d="M18.1941053,15.5789474 L19.3684211,15.5789474 C19.8336842,15.5789474 20.2105263,15.2016842 20.2105263,14.7368421 L20.2105263,12.5503158 L2.01642105,0.421052632 L0.842105263,0.421052632 C0.376842105,0.421052632 0,0.798315789 0,1.26315789 L0,3.44968421 L18.1941053,15.5789474 Z" id="Shape" fill="#1C1C1C"></path>
                </g>
            </g>
        </g>
    </g>
</svg>