<?xml version="1.0" encoding="UTF-8"?>
<svg width="16px" height="16px" viewBox="0 0 16 16" version="1.1" xmlns="http://www.w3.org/2000/svg" xmlns:xlink="http://www.w3.org/1999/xlink">
    <!-- Generator: Sketch 47.1 (45422) - http://www.bohemiancoding.com/sketch -->
    <title>Menu / Selected Icons / logout</title>
    <desc>Created with Sketch.</desc>
    <defs></defs>
    <g id="Symbols" stroke="none" stroke-width="1" fill="none" fill-rule="evenodd">
        <g id="Menu-/-Selected-Icons-/-logout" fill-rule="nonzero" fill="#D51F32">
            <g id="log-out">
                <polygon id="Shape" points="4 4 0 8 4 12 4 9 10 9 10 7 4 7"></polygon>
                <path d="M15,16 L6,16 C5.4,16 5,15.6 5,15 L5,12 L7,12 L7,14 L14,14 L14,2 L7,2 L7,4 L5,4 L5,1 C5,0.4 5.4,0 6,0 L15,0 C15.6,0 16,0.4 16,1 L16,15 C16,15.6 15.6,16 15,16 Z" id="Shape"></path>
            </g>
        </g>
    </g>
</svg>