<?xml version="1.0" encoding="UTF-8"?>
<svg width="16px" height="16px" viewBox="0 0 16 16" version="1.1" xmlns="http://www.w3.org/2000/svg" xmlns:xlink="http://www.w3.org/1999/xlink">
    <!-- Generator: Sketch 47.1 (45422) - http://www.bohemiancoding.com/sketch -->
    <title>Menu / Icons / data_manager</title>
    <desc>Created with Sketch.</desc>
    <defs></defs>
    <g id="Symbols" stroke="none" stroke-width="1" fill="none" fill-rule="evenodd">
        <g id="Menu-/-Icons-/-data_manager" fill-rule="nonzero" fill="#565656">
            <g id="database" transform="translate(1.000000, 0.000000)">
                <path d="M7,16 C10.5,16 14,15.1 14,13 L14,6.4 C12.4,7.4 10,8 7,8 C4,8 1.6,7.4 0,6.4 L0,13 C0,15.1 3.5,16 7,16 Z" id="Shape"></path>
                <path d="M7,6 C10.5,6 14,5.1 14,3 C14,0.9 10.5,0 7,0 C3.5,0 0,0.9 0,3 C0,5.1 3.5,6 7,6 Z" id="Shape"></path>
            </g>
        </g>
    </g>
</svg>