<?xml version="1.0" encoding="UTF-8"?>
<svg width="16px" height="16px" viewBox="0 0 16 16" version="1.1" xmlns="http://www.w3.org/2000/svg" xmlns:xlink="http://www.w3.org/1999/xlink">
    <!-- Generator: Sketch 47.1 (45422) - http://www.bohemiancoding.com/sketch -->
    <title>alert-circle-i</title>
    <desc>Created with Sketch.</desc>
    <defs></defs>
    <g id="Symbols" stroke="none" stroke-width="1" fill="none" fill-rule="evenodd">
        <g id="Menu-/-Collapsed-+-Submenu" transform="translate(-32.000000, -928.000000)" fill-rule="nonzero" fill="#565656">
            <g id="alert-circle-i" transform="translate(32.000000, 928.000000)">
                <path d="M8,0 C3.6,0 0,3.6 0,8 C0,12.4 3.6,16 8,16 C12.4,16 16,12.4 16,8 C16,3.6 12.4,0 8,0 Z M9,12 L7,12 L7,7 L9,7 L9,12 Z M8,6 C7.4,6 7,5.6 7,5 C7,4.4 7.4,4 8,4 C8.6,4 9,4.4 9,5 C9,5.6 8.6,6 8,6 Z" id="Shape"></path>
            </g>
        </g>
    </g>
</svg>